# This file uses meters as units for non-parametric coordinates.

mtllib Test.mtl
g default
v 0.000000 1000.000000 250.000000
v 0.000000 500.000000 250.000000
v 0.000000 0.000000 250.000000
v 0.000000 1000.000000 0.000000
v 0.000000 500.000000 0.000000
v 0.000000 0.000000 0.000000
v 0.000000 1000.000000 -250.000000
v 0.000000 500.000000 -250.000000
v 0.000000 0.000000 -250.000000
vt 0.000000 1.000000
vt 0.000000 0.500000
vt 0.500000 0.500000
vt 0.500000 1.000000
vt 0.000000 0.000000
vt 0.500000 0.000000
vt 1.000000 0.500000
vt 1.000000 1.000000
vt 1.000000 0.000000
vn 1.000000 0.000000 0.000000
vn 1.000000 0.000000 0.000000
vn 1.000000 0.000000 0.000000
vn 1.000000 0.000000 0.000000
vn 1.000000 0.000000 0.000000
vn 1.000000 0.000000 0.000000
vn 1.000000 0.000000 0.000000
vn 1.000000 0.000000 0.000000
vn 1.000000 0.000000 0.000000
s 1
g P3_Building_01
usemtl initialShadingGroup
f 1/1/1 2/2/2 5/3/3 4/4/4
f 2/2/2 3/5/5 6/6/6 5/3/3
f 4/4/4 5/3/3 8/7/7 7/8/8
f 5/3/3 6/6/6 9/9/9 8/7/7
